<?xml version="1.0" encoding="UTF-8"?>
<svg id="Capa_1" data-name="Capa 1" xmlns="http://www.w3.org/2000/svg" viewBox="0 0 213.72 70.12">
  <defs>
    <style>
      .cls-1 {
        fill: #5d2f88;
      }

      .cls-2 {
        fill: #42b7a7;
      }
    </style>
  </defs>
  <g>
    <path class="cls-1" d="M67.32,46.92c-4.22,0-8.1-1.04-11.64-3.13-3.54-2.09-6.34-4.92-8.41-8.51-2.06-3.59-3.1-7.49-3.1-11.71s1.03-8.11,3.1-11.68c2.06-3.56,4.87-6.39,8.41-8.48,3.54-2.09,7.42-3.13,11.64-3.13s8.03,1.04,11.57,3.13c3.54,2.09,6.35,4.91,8.44,8.48,2.09,3.56,3.13,7.46,3.13,11.68s-1.04,8.13-3.13,11.71c-2.09,3.59-4.9,6.43-8.44,8.51-3.54,2.09-7.4,3.13-11.57,3.13ZM67.32,6.12c-3.14,0-6.04.79-8.69,2.36-2.65,1.57-4.75,3.69-6.3,6.37-1.55,2.67-2.32,5.58-2.32,8.72s.77,6.12,2.32,8.79c1.55,2.67,3.65,4.8,6.3,6.37,2.65,1.57,5.55,2.36,8.69,2.36s6.04-.78,8.69-2.36c2.65-1.57,4.75-3.69,6.3-6.37,1.55-2.67,2.32-5.6,2.32-8.79s-.77-6.05-2.32-8.72c-1.55-2.67-3.65-4.79-6.3-6.37-2.65-1.57-5.55-2.36-8.69-2.36Z"/>
    <path class="cls-1" d="M141.54,46.5v-29.27l-17.66,22.93-17.73-23v29.34h-5.98V0l23.71,30.53L147.38,0v46.5h-5.84Z"/>
    <polygon class="cls-1" points="178.19 .21 156.74 46.5 163.21 46.5 167.29 37.64 167.29 37.64 169.98 31.8 169.96 31.8 177.98 14.42 185.72 31.8 185.64 31.8 188.22 37.64 188.25 37.64 192.12 46.5 198.53 46.5 178.19 .21"/>
    <path class="cls-1" d="M34.51,14.91c-1.01-2.72-2.45-5.14-4.33-7.25-2.02-2.25-4.44-3.97-7.28-5.17-2.84-1.2-5.85-1.79-9.04-1.79H0v5.91h13.86c2.39,0,4.61.42,6.65,1.27,2.04.84,3.79,2.09,5.24,3.73,1.45,1.59,2.56,3.41,3.31,5.45.75,2.04,1.13,4.19,1.13,6.44,0,2.95-.63,5.75-1.9,8.37-1.27,2.63-3.13,4.75-5.59,6.37-2.46,1.62-5.41,2.43-8.83,2.43H5.84v-11.68H0v17.52h13.86c3.24,0,6.26-.6,9.08-1.79,2.81-1.2,5.23-2.94,7.25-5.24,1.88-2.11,3.32-4.54,4.33-7.28,1.01-2.74,1.51-5.64,1.51-8.69s-.5-5.86-1.51-8.58Z"/>
  </g>
  <circle class="cls-2" cx="210.8" cy="43.58" r="2.92"/>
  <g>
    <path class="cls-1" d="M8.16,66.42c.24.35.36.73.36,1.13,0,.35-.08.68-.25.99-.17.31-.41.59-.73.82-.66.47-1.42.7-2.29.7-.43,0-.84-.06-1.24-.18-.39-.12-.75-.3-1.06-.52-.53-.39-.86-.88-.97-1.45l.6-.34c.03.52.28.94.76,1.27.24.19.53.33.86.43.33.1.68.15,1.04.15.75,0,1.38-.19,1.9-.58.5-.37.75-.8.75-1.29,0-.29-.09-.56-.27-.82-.18-.25-.44-.47-.77-.65-.31-.16-.86-.29-1.66-.38-.07,0-.3-.05-.71-.11-.41-.07-.76-.17-1.05-.31-.46-.22-.82-.52-1.08-.89-.26-.37-.39-.77-.39-1.2,0-.35.09-.67.26-.98.17-.31.42-.57.74-.81.31-.22.66-.4,1.06-.52s.81-.18,1.24-.18c.87,0,1.64.23,2.29.7.54.41.86.89.96,1.44l-.61.34c0-.23-.08-.46-.2-.68-.13-.22-.31-.41-.54-.59-.25-.19-.54-.33-.87-.43-.33-.1-.67-.15-1.03-.15s-.7.05-1.03.15c-.33.1-.62.24-.87.43-.24.18-.43.38-.56.6-.13.22-.2.45-.2.68,0,.29.11.58.32.87.22.29.48.51.8.67.2.09.41.16.65.2.24.04.55.09.92.13.07,0,.23.03.49.07.26.04.52.09.76.15.24.07.45.15.62.24.43.24.77.54,1.01.89Z"/>
    <path class="cls-1" d="M21.91,70.06c-.84,0-1.61-.21-2.32-.63-.71-.42-1.28-.99-1.69-1.71s-.62-1.5-.62-2.34.21-1.62.62-2.34.98-1.28,1.69-1.7c.71-.42,1.49-.63,2.32-.63.65,0,1.27.13,1.86.4.6.27,1.12.64,1.57,1.13l-.49.44c-.38-.42-.82-.75-1.33-.98-.51-.23-1.05-.35-1.61-.35-.72,0-1.39.18-2,.54-.61.36-1.1.85-1.46,1.47s-.54,1.29-.54,2.03.18,1.41.54,2.03c.36.62.85,1.11,1.46,1.47.61.36,1.28.54,2,.54.6,0,1.17-.13,1.71-.39s1-.63,1.39-1.1l.51.39c-.44.55-.98.98-1.6,1.29-.63.3-1.29.46-2,.46Z"/>
    <path class="cls-1" d="M38.02,70.06c-.46,0-.9-.09-1.33-.27-.43-.18-.8-.44-1.13-.78-.33-.32-.58-.69-.75-1.13-.17-.43-.26-.89-.26-1.36v-5.7h.63v5.7c0,.39.07.77.22,1.13s.35.67.61.93c.27.27.58.48.93.63.35.15.71.22,1.08.22s.75-.07,1.1-.22.66-.35.93-.63c.26-.26.47-.57.61-.93s.22-.73.22-1.13v-5.7h.63v5.7c0,.48-.09.93-.26,1.36-.17.43-.42.81-.75,1.13-.33.34-.7.6-1.13.78-.42.18-.87.27-1.35.27Z"/>
    <path class="cls-1" d="M51.12,69.96v-9.15h.63v8.51h5.14v.63h-5.77Z"/>
    <path class="cls-1" d="M66.35,69.96v-9.15s3.25,0,3.25,0c.53,0,1.03.12,1.48.35.46.23.82.55,1.08.94.27.39.4.83.4,1.29s-.13.89-.4,1.29c-.27.4-.63.72-1.08.95-.45.23-.95.35-1.48.35h-2.62v3.97h-.63ZM66.98,65.33h2.62c.42,0,.81-.09,1.17-.26.36-.17.64-.41.85-.7.21-.3.32-.62.32-.96s-.11-.68-.32-.98c-.21-.3-.49-.53-.85-.7-.36-.17-.75-.26-1.17-.26h-2.63v3.87Z"/>
    <path class="cls-1" d="M88.97,60.81v.65h-3.62v8.5h-.65v-8.5h-3.63v-.65h7.89Z"/>
    <path class="cls-1" d="M113.8,70.06c-.84,0-1.61-.21-2.32-.63-.71-.42-1.28-.99-1.69-1.71s-.62-1.5-.62-2.34.21-1.62.62-2.34.98-1.28,1.69-1.7c.71-.42,1.49-.63,2.32-.63.65,0,1.27.13,1.86.4.6.27,1.12.64,1.57,1.13l-.49.44c-.38-.42-.82-.75-1.33-.98-.51-.23-1.05-.35-1.61-.35-.72,0-1.39.18-2,.54-.61.36-1.1.85-1.46,1.47s-.54,1.29-.54,2.03.18,1.41.54,2.03c.36.62.85,1.11,1.46,1.47.61.36,1.28.54,2,.54.6,0,1.17-.13,1.71-.39s1-.63,1.39-1.1l.51.39c-.44.55-.98.98-1.6,1.29-.63.3-1.29.46-2,.46Z"/>
    <path class="cls-1" d="M126.49,69.96v-9.15h5.92v.65h-5.29v3.6h4.12v.65h-4.12v3.59h5.29v.66h-5.92Z"/>
    <path class="cls-1" d="M142.51,62.53v7.43h-.63v-9.26l6.33,7.57v-7.46h.63v9.3l-6.33-7.58Z"/>
    <path class="cls-1" d="M165.74,60.81v.65h-3.62v8.5h-.65v-8.5h-3.63v-.65h7.89Z"/>
    <path class="cls-1" d="M174.81,69.96v-9.15h5.92v.65h-5.29v3.6h4.12v.65h-4.12v3.59h5.29v.66h-5.92Z"/>
    <path class="cls-1" d="M195.58,69.96l-3.8-4.62h1.13c.69,0,1.26-.09,1.69-.27.32-.15.6-.38.83-.68.23-.3.35-.64.35-1.01,0-.33-.1-.64-.3-.94-.2-.3-.48-.54-.84-.72-.37-.19-.79-.28-1.27-.28h-2.56v8.51h-.63v-9.15h3.19c.43,0,.83.07,1.21.2s.7.33.99.58c.27.24.48.52.63.83.14.31.22.63.22.96,0,.52-.15.98-.46,1.39-.31.41-.68.7-1.1.88-.29.13-.57.21-.85.25-.28.03-.57.05-.88.05l3.31,4.01h-.84Z"/>
  </g>
</svg>